<svg xmlns="http://www.w3.org/2000/svg" viewBox="0 0 2000 500" width="2000" height="500">
	<style>
		tspan { white-space:pre }
		.shp0 { fill: #fcfcfc } 
		.shp1 { fill: #000000 } 
	</style>
	<g id="sweetdomains">
		<path id="Path 3 copy 4" class="shp0" d="M317.58 194.9C318.4 194.11 319.33 193.42 320.24 192.78C321.29 192.05 322.36 191.24 323.57 190.79C324.31 190.51 324.73 191.62 324.11 192.02C322.94 192.77 321.6 193.26 320.4 193.97C319.64 194.42 318.9 194.92 318.16 195.4C318.32 195.54 318.48 195.67 318.63 195.81C319.05 196.17 319.48 196.52 319.91 196.87C321.86 195.45 323.98 194.05 326.12 192.94C324.69 191.31 323.21 189.74 321.71 188.19C321.66 188.23 321.64 188.27 321.58 188.31C319.46 189.79 317.2 191.07 315.02 192.49C315.84 193.34 316.73 194.15 317.58 194.9Z" />
		<path id="Path 5 copy 4" class="shp0" d="M237.52 347.44C235.85 347.84 234.11 348.4 232.57 349.27C236.52 348.25 240.67 347.72 244.68 347.16C246.74 346.87 248.82 346.57 250.9 346.3C246.36 346.21 241.85 346.4 237.52 347.44ZM312.16 188.39C312.82 187.78 313.65 187.28 314.33 186.79C315.45 185.98 316.56 184.98 317.77 184.3C316.86 183.44 315.94 182.58 315 181.74C314.95 181.89 314.87 182.02 314.7 182.13C311.76 184.08 311.35 186.26 312.16 188.39ZM137.93 250.14C136.45 248.68 135.08 247.07 134.24 245.2C134.03 247.55 133.92 250 133.9 252.57C134.46 252.18 135.04 251.79 135.62 251.43C136.35 250.97 137.11 250.47 137.93 250.14ZM312.45 189.04C312.9 189.94 313.55 190.83 314.29 191.69C316.21 189.95 318.26 188.14 320.5 186.98C319.95 186.42 319.41 185.86 318.84 185.31C317.69 186.29 316.2 186.99 314.88 187.7C314.11 188.12 313.3 188.69 312.45 189.04ZM228.06 354.9C227.72 356.03 227.54 357.2 227.5 358.39C241.57 355.52 255.93 353.66 270.08 351.22C284.28 348.77 298.49 346.35 312.78 344.43C314 343.54 315.21 342.64 316.4 341.7C301.74 343.87 287.18 346.65 272.58 349.18C257.89 351.71 242.99 354.44 228.06 354.9ZM280.96 344.4C276 346.71 270.35 346.93 264.42 346.83C263.22 346.81 262.01 346.77 260.79 346.72C260.7 347.08 260.42 347.4 259.94 347.45C254.86 348 249.78 348.42 244.71 349.08C240.1 349.67 235.42 350.6 230.76 350.53C230.08 351.12 229.48 351.81 229.01 352.63C228.81 352.97 228.66 353.33 228.51 353.69C243.84 351.56 259.14 349.55 274.39 346.84C289.37 344.18 304.34 341.39 319.41 339.25C320.43 338.37 321.45 337.48 322.44 336.57C308.72 339.36 295.05 342.47 281.17 344.43C281.09 344.44 281.02 344.42 280.96 344.4ZM227.49 359.68C227.52 360.83 227.66 361.99 227.85 363.13C252.18 356.75 277.67 354.92 302.43 350.86C302.55 350.84 302.65 350.86 302.75 350.87C303.54 350.42 304.34 349.97 305.12 349.5C306.42 348.72 307.7 347.9 308.96 347.07C295.35 348.97 281.81 351.27 268.26 353.59C254.81 355.89 241.13 358.74 227.49 359.68ZM286.39 340.65C285.45 341.55 284.47 342.33 283.46 343C297.3 340.18 311.08 337.04 324.92 334.22C326.83 332.34 328.67 330.38 330.43 328.35C315.43 331.02 301.18 336.25 286.61 340.63C286.53 340.66 286.45 340.66 286.39 340.65ZM281.27 360.32C268.09 363.46 254.25 363.52 240.97 366.38C254.62 366.57 268.32 364.53 281.27 360.32ZM228.34 365.55C231.72 365.94 235.11 366.19 238.52 366.31C238.56 366.22 238.63 366.14 238.74 366.1C252.96 360.45 269.03 360.93 283.85 357.6C284.79 357.39 285.33 358.38 285.02 359.03C289.04 357.57 292.99 355.9 296.82 354.01C273.93 357.63 250.95 360.64 228.06 364.3C228.15 364.72 228.24 365.13 228.34 365.55ZM139.24 279.6C138.66 279.82 138.07 280.04 137.5 280.31C136.88 280.59 136.29 280.91 135.7 281.24C135.9 282.42 136.11 283.6 136.36 284.77C137.9 283.89 139.36 282.88 140.89 281.99C140.27 281.22 139.71 280.43 139.24 279.6ZM141.82 283.07C140.14 284.09 138.4 285.1 136.6 285.88C136.79 286.77 136.98 287.66 137.2 288.54C139.15 287.04 141.28 285.59 143.44 284.75C142.88 284.2 142.34 283.64 141.82 283.07ZM147.81 291.6C144.99 293.22 142.2 294.78 139.46 296.49C139.65 297.05 139.85 297.6 140.04 298.15C142.71 296.3 145.69 294.5 148.6 293.39C149.37 293.1 149.83 294.27 149.17 294.69C147.41 295.78 145.41 296.54 143.57 297.47C142.5 298.01 141.44 298.56 140.37 299.1C140.72 300.1 141.1 301.09 141.49 302.07C143.1 300.43 145.17 298.92 147.18 298.04C147.74 297.8 148.26 298.45 148.15 298.96C148.2 298.88 148.24 298.8 148.28 298.71C150.34 294.54 149.88 291.03 146.56 287.77C146.5 287.71 146.44 287.65 146.38 287.59C146.57 287.89 146.57 288.32 146.17 288.57C143.69 290.17 140.95 291.37 138.3 292.68C138.56 293.59 138.83 294.5 139.11 295.4C141.65 293.52 144.27 291.71 147.1 290.43C147.88 290.08 148.59 291.15 147.81 291.6ZM146.16 287.38C145.63 286.87 145.08 286.35 144.53 285.82C144.53 285.82 144.53 285.83 144.52 285.83C142.98 286.73 141.28 287.38 139.72 288.26C138.96 288.68 138.21 289.13 137.46 289.57C137.66 290.35 137.86 291.14 138.08 291.92C140.49 290.34 142.89 288.7 145.43 287.36C145.71 287.21 145.96 287.25 146.16 287.38Z" />
		<path id="Path 7 copy 4" class="shp0" d="M144.83 301.21C143.82 301.82 142.86 302.5 141.95 303.25C142.5 304.58 143.06 305.9 143.67 307.21C144.74 304.36 146.58 301.96 148 299.26C147.98 299.28 147.97 299.3 147.95 299.32C147.01 300.09 145.88 300.58 144.83 301.21ZM138.28 271.77C138.46 271.2 138.68 270.63 138.91 270.08C137.48 270.91 135.99 271.68 134.55 272.51C134.64 273.47 134.74 274.43 134.86 275.38C135.84 274.58 136.89 273.85 137.96 273.28C138.03 272.79 138.13 272.29 138.28 271.77ZM142.91 261.4C143.5 259.13 143.23 257.24 142.42 255.54C141.1 256.67 139.37 257.43 137.91 258.34C136.62 259.14 135.36 259.99 134.09 260.83C134.09 261.52 134.09 262.21 134.09 262.91C136.76 261.42 139.33 259.8 141.97 258.24C142.81 257.74 143.6 259.05 142.75 259.54C139.98 261.14 137.05 262.52 134.09 263.8C134.11 264.97 134.15 266.14 134.2 267.3C136.98 265.33 139.79 263.36 142.78 261.82C142.82 261.68 142.88 261.54 142.91 261.4ZM141.73 254.33C141.44 253.89 141.11 253.46 140.76 253.04C138.38 254.41 136.17 255.93 133.98 257.56C134 258.18 134.03 258.79 134.07 259.42C135.1 258.65 136.15 257.9 137.2 257.16C138.58 256.2 140.09 254.87 141.73 254.33ZM137.87 275.02C137.29 275.36 136.68 275.68 136.12 276.04C135.75 276.28 135.39 276.53 135.02 276.78C135.16 277.86 135.31 278.94 135.49 280.01C136.47 279.36 137.54 278.79 138.62 278.31C138.19 277.28 137.92 276.18 137.87 275.02ZM138.81 251C138.02 251.57 137.12 252.02 136.31 252.57C135.49 253.11 134.71 253.69 133.89 254.23C133.9 254.95 133.92 255.68 133.94 256.42C135.73 254.75 137.74 253.25 139.79 251.96C139.48 251.64 139.15 251.32 138.81 251ZM141.8 264.35C139.31 265.78 136.78 267.16 134.26 268.54C134.31 269.38 134.37 270.21 134.44 271.05C136.26 269.62 138.29 268.32 140.26 267.32C140.79 266.33 141.32 265.35 141.8 264.35ZM328.82 290.93C336.25 284.95 344.97 280.3 353.72 276.46C353.83 275.64 353.93 274.82 354.02 274C345.17 278.04 336.37 281.97 328.38 287.59C328.49 288.72 328.65 289.82 328.82 290.93ZM351.38 261.17C352.34 260.44 353.35 259.76 354.39 259.23C354.44 259.2 354.48 259.2 354.53 259.19C354.5 258.55 354.44 257.91 354.4 257.28C353.37 257.72 352.36 258.2 351.37 258.72C351.48 259.53 351.49 260.35 351.38 261.17ZM338.57 246.9C342.09 243.33 346.8 241.1 351.41 239.1C351.17 238.2 350.94 237.3 350.67 236.4C350.57 236.08 350.45 235.76 350.35 235.43C345.28 238.63 340.04 241.79 334.74 244.61C335.94 245.48 337.23 246.22 338.57 246.9ZM289.68 336.72C289.1 337.54 288.48 338.34 287.82 339.11C302.01 333.53 316.9 328.96 331.97 326.55C332.63 325.75 333.27 324.93 333.91 324.11C326.52 326.24 319.11 328.28 311.71 330.34C304.35 332.39 297.07 334.79 289.68 336.72ZM351.13 257.56C352.09 256.94 353.08 256.39 354.09 255.84C354.16 255.8 354.23 255.79 354.3 255.77C354.25 255.16 354.2 254.55 354.14 253.94C352.86 254.47 351.62 254.98 350.42 255.64C350.72 256.26 350.96 256.9 351.13 257.56ZM330.79 235.62C335.76 232.07 340.85 228.73 346.24 225.83C346.45 225.72 346.65 225.71 346.83 225.76C346.41 224.76 345.95 223.78 345.5 222.79C340.94 225.33 336.28 227.57 332.09 230.71C331.51 232.34 331.02 234.01 330.79 235.62ZM346.46 251.15C347.65 250.35 348.89 249.61 350.16 248.98C351.15 248.49 352.19 247.91 353.27 247.58C353.14 246.83 353.03 246.08 352.89 245.34C349.83 246.64 346.84 248 343.92 249.59C344.8 250.07 345.65 250.58 346.46 251.15ZM347.31 251.76C348.29 252.55 349.13 253.48 349.79 254.52C351.07 253.61 352.49 252.85 353.96 252.43C353.83 251.31 353.69 250.2 353.52 249.08C352.58 249.45 351.58 249.72 350.66 250.12C349.51 250.61 348.41 251.18 347.31 251.76ZM343.12 249.16C346.06 247.06 349.19 245.11 352.53 243.73C352.31 242.71 352.1 241.69 351.85 240.68C347.45 242.42 343.06 244.39 339.33 247.29C340.59 247.92 341.87 248.52 343.12 249.16ZM323.92 200.04C325.56 198.75 327.33 197.55 329.13 196.53C328.51 195.77 327.88 195.02 327.24 194.27C325.33 195.6 323.08 196.7 320.95 197.72C321.93 198.5 322.92 199.27 323.92 200.04ZM329.63 204.69C330.22 204.11 330.83 203.55 331.44 202.99C331.97 202.52 332.49 202.01 333.03 201.54C332.08 200.25 331.1 198.98 330.1 197.72C328.33 198.73 326.52 199.71 324.69 200.64C326.38 201.95 328.05 203.28 329.63 204.69ZM335.64 221.02C335.49 221.66 335.31 222.3 335.11 222.93C334.58 224.57 333.67 226.6 332.82 228.77C336.49 225.8 340.51 223.16 344.8 221.24C344.06 219.66 343.27 218.11 342.46 216.57C341.28 217.49 339.94 218.28 338.71 219.09C337.7 219.76 336.68 220.4 335.64 221.02ZM330.45 205.44C331.59 206.5 332.67 207.6 333.66 208.8C333.69 208.84 333.72 208.88 333.75 208.92C334.66 208.11 335.59 207.31 336.56 206.61C335.72 205.34 334.85 204.1 333.97 202.86C333.31 203.36 332.6 203.81 331.95 204.29C331.45 204.67 330.95 205.05 330.45 205.44ZM335.92 219.67C336.64 219.14 337.36 218.59 338.07 218.04C339.26 217.11 340.43 216.02 341.71 215.18C341.27 214.37 340.8 213.56 340.33 212.75C338.92 213.58 337.52 214.4 336.17 215.31C336.28 216.75 336.18 218.22 335.92 219.67ZM336.02 214.07C337.14 213.09 338.32 212.16 339.56 211.4C338.86 210.22 338.12 209.06 337.38 207.91C336.43 208.61 335.45 209.28 334.48 209.96C335.28 211.24 335.78 212.63 336.02 214.07ZM331.28 240.8C336.61 237.08 341.82 233.18 347.14 229.43C348.07 228.77 349.01 230.32 348.05 230.95C342.63 234.52 337.34 238.37 331.68 241.57C331.94 242 332.22 242.4 332.59 242.78C332.97 243.18 333.39 243.53 333.81 243.88C338.83 240.19 344.35 236.81 349.84 233.89C349.06 231.55 348.23 229.23 347.3 226.94C347.24 227.02 347.16 227.1 347.05 227.16C341.63 230.32 335.95 233.08 330.7 236.52C330.58 238.05 330.72 239.5 331.28 240.8ZM327.86 307.56C326.92 309.53 325.73 311.21 324.25 312.59C331.6 309.81 338.55 306.04 346.06 303.67C346.8 302 347.48 300.3 348.12 298.59C344.8 300.24 341.39 301.74 338.06 303.35C334.75 304.94 331.38 306.48 327.86 307.56ZM292.24 332.77C291.79 333.5 291.33 334.23 290.87 334.95C297.82 332.2 305.16 330.22 312.33 328.18C320 325.99 327.69 323.89 335.35 321.65C335.51 321.6 335.65 321.6 335.78 321.62C336.81 320.2 337.81 318.75 338.77 317.27C331.44 319.87 324.14 322.64 316.67 324.77C308.43 327.12 300.02 329.09 292.24 332.77ZM328.56 305.93C328.55 305.95 328.54 305.98 328.53 306C331.75 304.47 334.97 302.93 338.14 301.29C341.7 299.45 345.28 297.35 349.07 295.99C349.57 294.53 350.04 293.07 350.48 291.59C343.44 294.99 336.47 298.56 329.52 302.14C329.35 303.38 329.05 304.64 328.56 305.93ZM329.68 300.53C336.78 296.48 343.86 292.47 351.22 288.9C351.51 287.82 351.79 286.74 352.04 285.65C344.61 289.49 337.19 293.35 329.62 296.91C329.72 298.11 329.75 299.31 329.68 300.53ZM350.61 263.82C350.38 264.31 350.11 264.76 349.83 265.19C351.35 264.26 352.92 263.41 354.6 262.78C354.6 262.14 354.58 261.5 354.56 260.86C353.31 261.57 352.08 262.25 350.91 263.08C350.82 263.33 350.72 263.58 350.61 263.82ZM329.51 295.84C337.14 291.39 344.72 286.82 352.64 282.9C352.91 281.57 353.14 280.23 353.36 278.89C344.95 282.81 337.11 287.64 329.01 292.18C329.2 293.4 329.38 294.62 329.51 295.84ZM328.19 285.07C328.21 285.44 328.23 285.8 328.25 286.16C335.28 279.31 345.43 275.74 354.24 271.74C354.32 270.78 354.4 269.81 354.45 268.84C345.41 272.38 336.38 276.61 328.41 282.18C328.24 283.06 328.16 284.01 328.19 285.07ZM328.81 280.67C336.34 274.48 345.48 270.36 354.53 266.86C354.56 266.1 354.59 265.33 354.6 264.56C351.74 265.76 349.04 267.24 346.29 268.68C340.32 272.8 331.24 273.78 328.81 280.67ZM317.33 316.45C310.94 318.38 303.8 319.11 298.74 323.92C298.45 324.2 298.19 324.51 297.91 324.8C312.22 318.8 327.35 314.85 342.4 311.17C342.92 310.2 343.44 309.22 343.94 308.22C344.28 307.53 344.6 306.82 344.93 306.12C337.1 308.79 329.75 312.82 321.62 314.54C320.33 315.32 318.92 315.97 317.33 316.45ZM296.81 326.02C295.61 327.48 294.57 329.03 293.57 330.63C300.44 327.35 307.82 325.47 315.12 323.36C323.66 320.9 331.96 317.71 340.33 314.77C340.56 314.4 340.77 314.02 340.98 313.65C326.21 317.24 311.64 321.48 297.14 326.05C297.01 326.09 296.89 326.08 296.81 326.02Z" />
		<path id="Path 8 copy 4" fill-rule="evenodd" class="shp1" d="M362.45 271.91C360.45 293.52 352.39 314.28 338.78 331.04C326.37 346.33 309.88 357.78 291.79 364.99C271.53 373.06 248.97 376.1 227.09 373.67C228.74 379.72 229.53 386.35 229.34 392.32C229.24 395.61 228.88 401.09 225.3 402.7C221.4 404.46 218.53 401.62 216.68 398.37C215.39 396.11 214.36 393.72 213.13 391.44C212.35 390 211.13 387.22 209.37 386.74C204.79 385.51 203.48 394.24 202.4 397.03C201.01 400.64 198.47 404.7 193.93 403.77C189.83 402.93 187.73 398.6 186.25 395.1C184.61 391.25 183.6 385.43 180.48 382.45C179.29 381.31 178.82 381.6 178.42 383.13C177.87 385.23 177.77 387.41 177.76 389.57C177.7 399.88 180.5 410.9 176.55 420.84C175.18 424.3 172.85 428.69 168.86 429.64C165.42 430.46 162.33 428.57 160.72 425.53C155.19 415.07 159.73 403.67 162.98 393.39C164.75 387.78 166.91 381.53 166.36 375.56C166.08 372.58 164.99 369.99 162.43 368.29C160.23 366.82 157.85 366.02 156.51 368.89C154.21 373.84 154.65 380.24 156.75 385.12C158.85 390.01 162.29 396.68 157.73 401.33C155.26 403.85 150.71 407 147 405.24C143.95 403.81 143 400.1 142.54 397.06C141.12 387.76 144.09 378.7 143.78 369.44C143.2 352.35 135.48 335.64 139.54 318.47C139.57 318.32 139.69 318.23 139.82 318.18C139.23 317.13 138.66 316.06 138.11 314.98C123.35 285.91 122.11 252.06 134.24 221.78L139.02 211.56C151.23 187.44 164.94 175.41 184.64 161.62C194.37 154.8 207.33 149.85 218.88 147.18C232.19 144.1 245.84 144.46 259.19 147.14C315.19 158.38 368.1 211.02 362.45 271.91ZM228.44 347.78C233.32 343.81 239.91 343.08 246 342.93C254.99 342.71 264.09 344 273.06 343.01C277.15 342.56 280.71 341.44 283.67 338.44C288.27 333.76 290.46 327.31 295.05 322.63C299.85 317.74 305.9 315.75 312.39 314.15C318.82 312.57 323.98 310.33 325.69 303.3C326.71 299.09 326.22 295.25 325.41 291.06C324.86 288.19 324.32 285.2 324.85 282.29C325.95 276.25 329.75 272.56 335.11 270.12C338.85 268.42 346.14 266.5 347.46 261.98C349.31 255.66 342.78 253 338.21 250.75C333.32 248.35 328.32 245.56 327.31 239.75C326.13 232.92 330.49 226.77 332.06 220.4C333.47 214.67 331.95 211.55 327.84 207.85C324.12 204.5 320.1 201.49 316.41 198.09C311.33 193.39 305.1 185.28 313.94 180.87C313.96 180.86 313.98 180.86 313.99 180.85C308.59 176.13 302.83 171.85 296.79 168.11C273.7 153.79 244.18 147.55 217.43 155.26C194.17 161.97 171.8 174.05 157.75 193.97C148.6 206.95 139.93 217.9 136.04 234.03C136.16 238.22 135.41 242.75 138.43 246.14C140.53 248.49 143.49 250.33 144.95 253.2C146.49 256.23 146.97 259.71 145.68 262.94C144.32 266.36 141.61 269.63 141.02 273.29C139.78 281.02 149.09 283.92 151.55 290.17C154.39 297.39 147.44 302.75 144.25 308.42C146.43 312.98 148.95 317.4 151.86 321.63C162.76 337.47 178.28 349.52 195.74 356.98C204.9 360.89 214.59 363.56 224.48 365.03C223.34 359.03 223.33 351.93 228.44 347.78ZM333.97 202.86C333.31 203.36 332.6 203.81 331.95 204.29C331.45 204.67 330.95 205.05 330.45 205.44C331.59 206.5 332.67 207.6 333.66 208.8C333.69 208.84 333.72 208.88 333.75 208.92C334.66 208.11 335.59 207.31 336.56 206.61C335.72 205.34 334.85 204.1 333.97 202.86ZM337.38 207.91C336.43 208.61 335.45 209.28 334.48 209.96C335.28 211.24 335.78 212.63 336.02 214.07C337.14 213.09 338.32 212.16 339.56 211.4C338.86 210.22 338.12 209.06 337.38 207.91ZM340.33 212.75C338.92 213.58 337.52 214.4 336.17 215.31C336.28 216.75 336.18 218.22 335.92 219.67C336.64 219.14 337.36 218.59 338.07 218.04C339.26 217.11 340.43 216.02 341.71 215.18C341.27 214.37 340.8 213.56 340.33 212.75ZM342.46 216.57C341.28 217.49 339.94 218.28 338.71 219.09C337.7 219.76 336.68 220.4 335.64 221.02C335.49 221.66 335.31 222.3 335.11 222.93C334.58 224.57 333.67 226.6 332.82 228.77C336.49 225.8 340.51 223.16 344.8 221.24C344.06 219.66 343.27 218.11 342.46 216.57ZM345.5 222.79C340.94 225.33 336.28 227.57 332.09 230.71C331.51 232.34 331.02 234.01 330.79 235.62C335.76 232.07 340.85 228.73 346.24 225.83C346.45 225.72 346.65 225.71 346.83 225.76C346.41 224.76 345.95 223.78 345.5 222.79ZM347.05 227.16C341.63 230.32 335.95 233.08 330.7 236.52C330.58 238.05 330.72 239.5 331.28 240.8C336.61 237.08 341.82 233.18 347.14 229.43C348.07 228.77 349.01 230.32 348.05 230.95C342.63 234.52 337.34 238.37 331.68 241.57C331.94 242 332.22 242.4 332.59 242.78C332.97 243.18 333.39 243.53 333.81 243.88C338.83 240.19 344.35 236.81 349.84 233.89C349.06 231.55 348.23 229.23 347.3 226.94C347.24 227.02 347.16 227.1 347.05 227.16ZM350.35 235.43C345.28 238.63 340.04 241.79 334.74 244.61C335.94 245.48 337.23 246.22 338.57 246.9C342.09 243.33 346.8 241.1 351.41 239.1C351.17 238.2 350.94 237.3 350.67 236.4C350.57 236.08 350.45 235.76 350.35 235.43ZM351.85 240.68C347.45 242.42 343.06 244.39 339.33 247.29C340.59 247.92 341.87 248.52 343.12 249.16C346.06 247.06 349.19 245.11 352.53 243.73C352.31 242.71 352.1 241.69 351.85 240.68ZM352.89 245.34C349.83 246.64 346.84 248 343.92 249.59C344.8 250.07 345.65 250.58 346.46 251.15C347.65 250.35 348.89 249.61 350.16 248.98C351.15 248.49 352.19 247.91 353.27 247.58C353.14 246.83 353.03 246.08 352.89 245.34ZM353.52 249.08C352.58 249.45 351.58 249.72 350.66 250.12C349.51 250.61 348.41 251.18 347.31 251.76C348.29 252.55 349.13 253.48 349.79 254.52C351.07 253.61 352.49 252.85 353.96 252.43C353.83 251.31 353.69 250.2 353.52 249.08ZM354.14 253.94C352.86 254.47 351.62 254.98 350.42 255.64C350.72 256.26 350.96 256.9 351.13 257.56C352.09 256.94 353.08 256.39 354.09 255.84C354.16 255.8 354.23 255.79 354.3 255.77C354.25 255.16 354.2 254.55 354.14 253.94ZM354.4 257.28C353.37 257.72 352.36 258.2 351.37 258.72C351.48 259.53 351.49 260.35 351.38 261.17C352.34 260.44 353.35 259.76 354.39 259.23C354.44 259.2 354.48 259.2 354.53 259.19C354.5 258.55 354.44 257.91 354.4 257.28ZM354.56 260.86C353.31 261.57 352.08 262.25 350.91 263.08C350.82 263.33 350.72 263.58 350.61 263.82C350.38 264.31 350.11 264.76 349.83 265.19C351.35 264.26 352.92 263.41 354.6 262.78C354.6 262.14 354.58 261.5 354.56 260.86ZM354.6 264.56C351.74 265.76 349.04 267.24 346.29 268.68C340.32 272.8 331.24 273.78 328.81 280.67C336.34 274.48 345.48 270.36 354.53 266.86C354.56 266.1 354.59 265.33 354.6 264.56ZM354.45 268.84C345.41 272.38 336.38 276.61 328.41 282.18C328.24 283.06 328.16 284.01 328.2 285.07C328.21 285.44 328.23 285.8 328.25 286.16C335.28 279.31 345.43 275.74 354.24 271.74C354.32 270.78 354.4 269.81 354.45 268.84ZM354.02 274C345.17 278.04 336.37 281.97 328.38 287.59C328.49 288.72 328.65 289.82 328.82 290.93C336.25 284.95 344.97 280.3 353.72 276.46C353.83 275.64 353.93 274.82 354.02 274ZM353.36 278.89C344.95 282.81 337.11 287.64 329.01 292.18C329.2 293.4 329.38 294.62 329.51 295.84C337.14 291.39 344.72 286.82 352.64 282.9C352.91 281.57 353.14 280.23 353.36 278.89ZM352.04 285.65C344.61 289.49 337.19 293.35 329.62 296.91C329.72 298.11 329.75 299.31 329.68 300.53C336.78 296.48 343.86 292.47 351.22 288.9C351.51 287.82 351.79 286.74 352.04 285.65ZM350.48 291.59C343.44 294.99 336.47 298.56 329.52 302.14C329.35 303.38 329.05 304.64 328.56 305.93C328.55 305.95 328.54 305.98 328.53 306C331.75 304.47 334.97 302.93 338.14 301.29C341.7 299.45 345.28 297.35 349.07 295.99C349.57 294.53 350.04 293.07 350.48 291.59ZM348.12 298.59C344.8 300.24 341.39 301.74 338.06 303.35C334.75 304.94 331.38 306.48 327.86 307.56C326.92 309.53 325.73 311.21 324.25 312.59C331.6 309.81 338.55 306.04 346.06 303.67C346.8 302 347.48 300.3 348.12 298.59ZM344.93 306.12C337.1 308.79 329.75 312.82 321.62 314.54C320.33 315.32 318.92 315.97 317.33 316.45C310.94 318.38 303.8 319.11 298.74 323.92C298.45 324.2 298.19 324.51 297.91 324.8C312.22 318.8 327.35 314.85 342.4 311.17C342.93 310.2 343.44 309.22 343.94 308.22C344.28 307.53 344.6 306.82 344.93 306.12ZM340.98 313.65C326.21 317.24 311.64 321.48 297.14 326.05C297.01 326.09 296.89 326.08 296.81 326.02C295.61 327.48 294.57 329.03 293.57 330.63C300.44 327.35 307.82 325.47 315.12 323.36C323.66 320.9 331.96 317.71 340.33 314.77C340.56 314.4 340.77 314.02 340.98 313.65ZM338.77 317.27C331.44 319.87 324.14 322.64 316.67 324.77C308.43 327.12 300.02 329.09 292.24 332.77C291.79 333.5 291.33 334.23 290.87 334.95C297.82 332.2 305.16 330.22 312.33 328.18C320 325.99 327.69 323.89 335.35 321.65C335.51 321.6 335.65 321.6 335.78 321.62C336.81 320.2 337.81 318.75 338.77 317.27ZM333.91 324.11C326.52 326.24 319.11 328.28 311.71 330.34C304.35 332.39 297.07 334.79 289.68 336.72C289.1 337.54 288.48 338.34 287.82 339.11C302.01 333.53 316.9 328.96 331.97 326.55C332.63 325.75 333.27 324.93 333.91 324.11ZM330.43 328.35C315.43 331.02 301.18 336.25 286.61 340.63C286.53 340.66 286.45 340.66 286.39 340.65C285.45 341.55 284.47 342.33 283.46 343C297.3 340.18 311.08 337.04 324.92 334.22C326.83 332.34 328.67 330.38 330.43 328.35ZM322.44 336.57C308.72 339.36 295.05 342.47 281.17 344.43C281.09 344.44 281.02 344.42 280.96 344.4C276 346.71 270.35 346.93 264.42 346.83C263.22 346.81 262.01 346.77 260.79 346.72C260.7 347.08 260.42 347.4 259.94 347.45C254.86 348 249.78 348.42 244.71 349.08C240.1 349.67 235.42 350.6 230.76 350.53C230.08 351.12 229.48 351.81 229.01 352.63C228.81 352.97 228.66 353.33 228.51 353.69C243.84 351.56 259.14 349.55 274.39 346.84C289.37 344.18 304.34 341.39 319.41 339.25C320.43 338.37 321.45 337.48 322.44 336.57ZM316.4 341.7C301.74 343.87 287.18 346.65 272.58 349.18C257.89 351.71 242.99 354.44 228.06 354.9C227.72 356.03 227.54 357.2 227.5 358.39C241.57 355.52 255.93 353.66 270.08 351.22C284.28 348.77 298.49 346.35 312.78 344.43C314 343.54 315.21 342.64 316.4 341.7ZM308.96 347.07C295.35 348.97 281.81 351.27 268.26 353.59C254.81 355.89 241.13 358.74 227.49 359.68C227.52 360.83 227.66 361.99 227.85 363.13C252.18 356.75 277.67 354.92 302.43 350.86C302.55 350.84 302.65 350.86 302.75 350.87C303.54 350.42 304.34 349.97 305.12 349.5C306.42 348.72 307.7 347.9 308.96 347.07ZM296.82 354.01C273.93 357.63 250.95 360.64 228.06 364.3C228.15 364.72 228.24 365.13 228.34 365.55C231.72 365.94 235.11 366.19 238.52 366.31C238.56 366.22 238.63 366.14 238.74 366.1C252.96 360.45 269.03 360.93 283.85 357.6C284.79 357.39 285.33 358.38 285.02 359.03C289.04 357.57 292.99 355.9 296.82 354.01ZM281.27 360.32C268.09 363.46 254.25 363.52 240.97 366.38C254.62 366.57 268.32 364.53 281.27 360.32ZM237.52 347.44C235.85 347.84 234.11 348.4 232.57 349.27C236.52 348.25 240.67 347.72 244.68 347.16C246.74 346.87 248.82 346.57 250.9 346.3C246.36 346.21 241.85 346.4 237.52 347.44ZM329.13 196.53C328.51 195.77 327.88 195.02 327.24 194.27C325.33 195.6 323.08 196.7 320.95 197.72C321.93 198.5 322.92 199.27 323.92 200.04C325.56 198.75 327.33 197.55 329.13 196.53ZM225.22 382.18C224.71 379.18 224.11 376.14 223.28 373.18C207.66 370.98 192.48 365.96 178.84 357.93C163.04 348.63 149.55 335.26 140.38 319.17C139.85 324.28 139.82 329.46 140.48 334.55C141.63 343.39 144.07 352 145.44 360.8C146.49 367.6 146.32 374.09 145.51 380.88C145.04 384.75 144.75 388.69 144.91 392.59C145.02 395.35 145.01 401.26 148.05 402.71C149.88 403.58 152.14 402.26 153.61 401.24C157.11 398.83 157.99 395.71 156.63 391.75C155.53 388.57 153.68 385.6 152.87 382.33C152.29 380.01 152.22 377.56 152.38 375.17C152.62 371.6 153.22 365.51 157.38 364.21C161.71 362.85 166.65 366.88 168.26 370.68C170.3 375.49 169.4 381.17 168.22 386.09C166.78 392.12 164.59 397.91 162.85 403.86C161.22 409.44 160.52 415.42 162.26 421.1C163.27 424.38 165.94 428.66 169.7 425.73C174.26 422.17 175.33 414.67 175.47 409.34C175.59 404.93 174.94 400.52 174.67 396.12C174.47 392.71 173.24 373.18 181.97 379.21C185.32 381.52 186.61 386.58 187.97 390.17C189.01 392.89 191.17 400.77 195.18 400.44C199.39 400.1 200.27 392.21 201.59 389.16C203.1 385.69 206.37 382 210.57 383.65C214.6 385.22 216.39 390.52 218.18 394.04C219.27 396.18 223.26 403.47 225.19 397.79C226.84 392.91 226.06 387.15 225.22 382.18ZM147.95 299.32C147.01 300.09 145.88 300.58 144.83 301.21C143.82 301.82 142.86 302.5 141.95 303.25C142.5 304.58 143.06 305.9 143.67 307.21C144.74 304.36 146.58 301.96 148 299.26C147.98 299.28 147.97 299.3 147.95 299.32ZM140.04 298.15C142.71 296.3 145.69 294.5 148.6 293.39C149.37 293.1 149.83 294.27 149.17 294.69C147.41 295.78 145.41 296.54 143.57 297.47C142.5 298.01 141.44 298.56 140.37 299.1C140.72 300.1 141.1 301.09 141.49 302.07C143.1 300.43 145.17 298.92 147.18 298.04C147.74 297.8 148.26 298.45 148.15 298.96C148.2 298.88 148.24 298.8 148.28 298.71C150.34 294.54 149.88 291.03 146.56 287.77C146.5 287.71 146.44 287.65 146.38 287.59C146.57 287.89 146.57 288.32 146.17 288.57C143.69 290.17 140.95 291.37 138.3 292.68C138.56 293.59 138.83 294.5 139.11 295.4C141.65 293.52 144.27 291.71 147.1 290.43C147.88 290.08 148.59 291.15 147.81 291.6C144.99 293.22 142.2 294.78 139.46 296.49C139.65 297.05 139.85 297.6 140.04 298.15ZM145.43 287.36C145.71 287.21 145.96 287.25 146.16 287.38C145.63 286.87 145.08 286.35 144.53 285.82C144.53 285.82 144.53 285.83 144.52 285.83C142.98 286.73 141.28 287.38 139.72 288.26C138.96 288.68 138.21 289.13 137.46 289.57C137.66 290.35 137.86 291.14 138.08 291.92C140.49 290.34 142.89 288.7 145.43 287.36ZM137.2 288.54C139.15 287.04 141.28 285.59 143.44 284.75C142.88 284.2 142.34 283.64 141.82 283.07C140.14 284.09 138.4 285.1 136.6 285.88C136.79 286.77 136.98 287.66 137.2 288.54ZM136.36 284.77C137.9 283.89 139.36 282.88 140.89 281.99C140.27 281.22 139.71 280.43 139.24 279.6C138.66 279.82 138.07 280.04 137.5 280.31C136.88 280.59 136.29 280.91 135.7 281.24C135.9 282.42 136.11 283.6 136.36 284.77ZM135.49 280.01C136.47 279.36 137.54 278.79 138.62 278.31C138.19 277.28 137.92 276.18 137.87 275.02C137.29 275.36 136.68 275.68 136.12 276.04C135.75 276.28 135.39 276.53 135.02 276.78C135.16 277.86 135.31 278.94 135.49 280.01ZM134.86 275.38C135.84 274.58 136.89 273.85 137.96 273.28C138.03 272.79 138.13 272.29 138.28 271.77C138.46 271.2 138.68 270.63 138.91 270.08C137.48 270.91 135.99 271.68 134.55 272.51C134.64 273.47 134.74 274.43 134.86 275.38ZM134.44 271.05C136.26 269.62 138.29 268.32 140.26 267.32C140.79 266.33 141.32 265.35 141.8 264.35C139.31 265.78 136.78 267.16 134.26 268.54C134.31 269.38 134.37 270.21 134.44 271.05ZM134.2 267.3C136.98 265.33 139.79 263.36 142.78 261.82C142.82 261.68 142.88 261.54 142.91 261.4C143.5 259.13 143.23 257.24 142.42 255.54C141.1 256.67 139.37 257.43 137.91 258.34C136.62 259.14 135.36 259.99 134.09 260.83C134.09 261.52 134.09 262.21 134.09 262.91C136.76 261.42 139.33 259.8 141.97 258.24C142.81 257.74 143.6 259.05 142.75 259.54C139.98 261.14 137.05 262.52 134.09 263.8C134.11 264.97 134.15 266.14 134.2 267.3ZM134.07 259.42C135.1 258.65 136.15 257.9 137.2 257.16C138.58 256.2 140.09 254.87 141.73 254.33C141.44 253.89 141.11 253.46 140.76 253.04C138.38 254.41 136.17 255.93 133.98 257.56C134 258.18 134.03 258.79 134.07 259.42ZM133.94 256.42C135.73 254.75 137.74 253.25 139.79 251.96C139.48 251.64 139.15 251.32 138.81 251C138.02 251.57 137.12 252.02 136.31 252.57C135.49 253.11 134.71 253.69 133.89 254.23C133.9 254.95 133.92 255.68 133.94 256.42ZM133.9 252.57C134.46 252.18 135.04 251.79 135.62 251.43C136.35 250.97 137.11 250.47 137.93 250.14C136.45 248.68 135.08 247.07 134.24 245.2C134.03 247.55 133.92 250 133.9 252.57ZM314.7 182.13C311.76 184.08 311.35 186.26 312.16 188.39C312.82 187.78 313.65 187.28 314.33 186.79C315.45 185.98 316.56 184.98 317.77 184.3C316.86 183.44 315.94 182.58 315 181.74C314.95 181.89 314.87 182.02 314.7 182.13ZM318.84 185.31C317.69 186.29 316.2 186.99 314.88 187.7C314.11 188.12 313.3 188.69 312.45 189.04C312.9 189.94 313.55 190.83 314.29 191.69C316.21 189.95 318.26 188.14 320.5 186.98C319.95 186.42 319.41 185.86 318.84 185.31ZM321.58 188.31C319.46 189.79 317.2 191.07 315.02 192.49C315.84 193.34 316.73 194.15 317.58 194.9C318.4 194.11 319.33 193.42 320.24 192.78C321.29 192.05 322.36 191.24 323.57 190.79C324.31 190.51 324.73 191.62 324.11 192.02C322.94 192.77 321.6 193.26 320.4 193.97C319.64 194.42 318.9 194.92 318.16 195.4C318.32 195.54 318.48 195.67 318.63 195.81C319.05 196.17 319.48 196.52 319.91 196.87C321.86 195.45 323.98 194.05 326.12 192.94C324.69 191.31 323.21 189.74 321.71 188.19C321.66 188.23 321.64 188.27 321.58 188.31ZM330.1 197.72C328.33 198.73 326.52 199.71 324.69 200.64C326.38 201.95 328.05 203.28 329.63 204.69C330.22 204.11 330.83 203.55 331.44 202.99C331.97 202.52 332.49 202.01 333.03 201.54C332.08 200.25 331.1 198.98 330.1 197.72ZM191.74 168.55C206.57 159.99 223.86 154.9 240.98 154.2C258.68 153.47 275.28 157.71 290.4 166.93C291.38 167.53 290.5 169.1 289.52 168.49C274.47 159.22 257.66 154.68 239.95 155.5C223.04 156.29 207.08 161.49 192 168.98C191.72 169.12 191.46 168.71 191.74 168.55Z" />
		<path id="Path 9 copy 4" fill-rule="evenodd" class="shp1" d="M209.46 265.54C207.8 256.29 209.26 246.73 214.93 239.06C220.3 231.81 227.87 227.98 236.13 225.8C236.11 224.61 236.88 223.36 238.42 223.22C257.65 221.51 275.46 237.89 279.02 256.24C280.78 265.34 279.43 274.86 273.52 282.26C268.09 289.04 259.42 293.99 250.89 295.62C231.1 299.41 212.95 284.98 209.46 265.54ZM214.36 268.77C217.41 277.56 223.79 285.42 232.4 289.25C242.5 293.74 253.71 291.36 262.69 285.42C275.05 277.25 277.86 262.19 271.42 249.18C265.17 236.54 252.98 227.37 238.49 228.06C238.12 228.08 237.79 228.02 237.51 227.92C228.97 230.59 220.81 235.51 216.38 243.2C211.9 250.98 211.43 260.35 214.36 268.77ZM231.56 286.14C236.07 287.76 241.11 288.43 245.89 288.07C248.5 287.88 251.12 287.52 253.62 286.71C256.05 285.93 258.1 284.63 260.41 283.63C261.24 283.26 262.19 284.24 261.45 284.96C257.93 288.39 251.56 289.66 246.83 289.88C241.39 290.14 236.16 289.33 231.3 286.81C230.94 286.63 231.17 286 231.56 286.14ZM262.84 282.26C263.12 281.82 263.46 281.44 263.81 281.05C264.2 280.61 264.45 280.16 265.03 279.95C265.79 279.68 266.26 280.56 265.99 281.16C265.75 281.69 265.17 281.91 264.69 282.2C264.3 282.44 263.91 282.69 263.5 282.91C263.1 283.12 262.57 282.68 262.84 282.26ZM276.49 243.22C276.21 242.66 276.96 242.2 277.33 242.72C286.75 256.01 285.18 276.36 274.12 288.18C273.24 289.11 271.83 287.73 272.7 286.8C283.87 274.8 283.38 257.21 276.49 243.22ZM266.57 292.51C266.3 292.06 266.47 291.55 266.87 291.26C267.32 290.94 267.84 290.72 268.29 290.4C268.7 290.12 269.06 289.79 269.41 289.44C269.72 289.12 270.41 289.43 270.23 289.91C269.78 291.06 268.81 292.1 267.82 292.81C267.41 293.1 266.81 292.91 266.57 292.51ZM261.27 296.55C260.39 296.66 260.02 295.27 260.79 294.89C261.36 294.61 261.98 294.45 262.55 294.17C263.07 293.91 263.58 293.6 264.14 293.45C264.6 293.33 265.1 293.84 264.81 294.28C264.07 295.39 262.58 296.37 261.27 296.55ZM213.48 183.15C214.86 183.17 214.81 185.07 213.51 185.25C211.35 185.54 209.22 186.22 207.18 186.98C206.13 187.49 205.07 188.04 203.93 188.51C203.53 188.68 203.18 188.51 202.97 188.21C202.52 188.13 202.3 187.61 202.63 187.24C203.43 186.33 204.83 185.77 206.09 185.3C208.4 184.11 210.77 183.12 213.48 183.15ZM203.99 212.81C204.5 214 202.7 214.58 202.04 213.67C201.57 213.03 201.26 212.39 201.05 211.74C200.49 210.69 199.95 209.63 199.61 208.52C199.39 207.81 199.92 207.28 200.5 207.2C200.48 206.82 200.45 206.44 200.41 206.05C200.36 205.52 201.12 205.47 201.29 205.92C201.65 206.89 201.9 207.87 202.17 208.83C202.85 210.12 203.42 211.49 203.99 212.81ZM178.69 231.01C178.95 233.58 179.12 236.17 179.11 238.76C179.16 239.46 178.63 239.81 178.08 239.81C177.52 239.85 176.95 239.51 176.95 238.79C176.77 236.21 176.77 233.62 176.85 231.03C176.86 230.79 176.94 230.6 177.05 230.46C177.05 230.34 177.05 230.22 177.05 230.1C177.04 229.21 178.38 229.2 178.43 230.08C178.44 230.2 178.45 230.32 178.45 230.44C178.58 230.58 178.67 230.77 178.69 231.01ZM229.52 203.35C229.94 203.24 230.36 203.11 230.78 202.99C230.91 202.69 231.15 202.43 231.48 202.29C233.27 201.52 235.16 200.95 237.09 201.45C238.68 201.87 238.05 204.29 236.45 203.92C234.83 203.58 233.43 204.61 231.85 204.7C231.35 204.73 231.02 204.53 230.83 204.24C230.44 204.29 230.05 204.34 229.67 204.37C229.08 204.42 228.95 203.5 229.52 203.35ZM223.97 214.07C224.56 214.25 224.99 214.8 224.77 215.55C224.55 216.3 224.04 216.86 223.57 217.45C223.09 218.06 222.67 218.69 222.26 219.35C221.39 220.73 219.16 219.48 220.04 218.1C220.05 218.09 220.06 218.07 220.07 218.06C220.34 217.42 220.71 216.84 221.11 216.27C221.59 215.39 222.04 214.49 222.47 213.6C222.85 212.82 224.05 213.28 223.97 214.07ZM188.45 262.84C187.74 263.35 187.12 263.94 186.55 264.57C185.51 265.83 184.75 267.32 183.79 268.72C183.6 269 183.35 269.16 183.09 269.23C182.69 269.81 182.27 270.37 181.83 270.91C181.24 271.65 180.04 270.73 180.52 269.94C180.84 269.41 181.15 268.88 181.46 268.34C181.41 268.09 181.45 267.81 181.65 267.51C183.34 264.98 184.47 262.36 187.13 260.65C188.53 259.74 189.76 261.88 188.45 262.84ZM190.72 276.47C190.07 275.21 191.92 274.07 192.62 275.32C193.59 277.09 194.5 278.77 195.6 280.35C195.8 280.58 196 280.81 196.19 281.04C196.87 281.83 197.54 282.61 198.19 283.42C199.27 284.76 197.58 286.68 196.27 285.4C195.9 285.04 195.57 284.66 195.24 284.28C194.2 283.19 193.03 282.08 192.4 280.83C192.23 280.48 192.22 280.05 192.34 279.67C191.79 278.61 191.27 277.53 190.72 276.47ZM272.23 203.78C268.14 204.64 264.17 206.09 260.12 207.14C258.99 207.43 258.49 205.73 259.61 205.41C260.69 205.09 261.76 204.73 262.82 204.35C262.85 203.98 263.04 203.64 263.47 203.45C266.13 202.27 268.9 201.25 271.83 201.09C273.36 201 273.76 203.46 272.23 203.78ZM251.26 172.14C251.19 171.76 251.12 171.37 251.05 170.98C250.93 170.33 251.87 170.03 252.06 170.69C252.16 171.04 252.25 171.39 252.35 171.74C252.83 171.76 253.29 172.03 253.5 172.62C254.22 174.74 254.91 176.94 255.39 179.13C255.65 180.29 253.91 181.23 253.37 180.02C253.33 179.93 253.3 179.84 253.26 179.75C253.26 179.75 253.25 179.75 253.25 179.75C252.37 177.69 251.65 175.5 251 173.35C250.85 172.84 250.99 172.43 251.26 172.14ZM166.43 209.01C166.02 209.4 165.56 209.45 165.18 209.32C164.97 209.53 164.77 209.75 164.56 209.95C163.87 210.65 162.85 209.64 163.48 208.9C163.77 208.56 164.06 208.21 164.35 207.87C164.39 207.66 164.48 207.46 164.63 207.26C166.32 205.13 167.95 202.76 170.25 201.24C171.67 200.29 173.11 202.69 171.61 203.5C169.45 204.9 168.26 207.26 166.43 209.01ZM177.03 315.47C174.73 313.93 172.56 311.86 170.71 309.81C170.24 309.29 170.27 308.59 170.59 308.09C170.15 307.48 169.7 306.86 169.24 306.25C168.64 305.46 169.93 304.45 170.6 305.17C171.64 306.3 172.61 307.49 173.62 308.64C175.28 310 176.67 311.74 178.41 313.01C179.95 313.98 178.53 316.47 177.03 315.47ZM213.91 318.29C212.95 318.33 212 318.37 211.07 318.46C210.3 318.53 210.2 317.4 210.87 317.17C214.06 316.08 217.44 316.01 220.57 314.68C221.92 314.11 222.9 316.37 221.6 317.03C219.68 318 217.56 318.69 215.46 319.19C214.75 319.35 214.13 318.87 213.91 318.29ZM289.25 226.09C289.24 226.1 289.24 226.1 289.23 226.1C287.77 222.98 285.86 220.44 283.84 217.67C282.75 216.18 285.21 214.71 286.28 216.19C288.24 218.92 290.8 221.71 291.51 225.1C291.81 226.57 289.96 227.23 289.25 226.09ZM301.54 258.84C302.08 256.39 301.5 253.83 302.01 251.4C302.25 250.27 303.76 250.16 304.35 250.98C304.54 251.15 304.67 251.4 304.66 251.7C304.65 251.76 304.65 251.82 304.65 251.88C304.82 252.85 304.77 253.88 304.74 254.85C304.7 256.42 304.62 258.02 304.27 259.55C303.85 261.31 301.05 260.59 301.54 258.84ZM285.23 308.24C284.74 306.85 284.41 305.45 284.16 304.04C283.89 302.77 283.63 301.5 283.36 300.24C283.26 299.78 283.37 299.39 283.59 299.1C283.51 298.12 283.44 297.14 283.37 296.15C283.28 295 284.99 295.02 285.13 296.12C285.24 296.98 285.35 297.84 285.46 298.7C285.7 298.85 285.9 299.1 286 299.46C286.74 302.09 287.25 304.82 287.77 307.49C288.09 309.15 285.8 309.86 285.23 308.24ZM266.16 315.77C266.31 316.14 266.47 316.5 266.62 316.86C266.78 316.95 266.92 317.07 267.03 317.24C267.56 318.07 267.89 319.07 268.3 319.97C268.72 320.86 269.26 321.77 269.49 322.73C269.61 323.28 269.33 323.76 268.93 324.01C269.04 324.37 269.15 324.71 269.26 325.07C269.47 325.73 268.47 326 268.24 325.37C268.08 324.93 267.92 324.5 267.76 324.07C267.62 323.97 267.48 323.85 267.37 323.66C266.75 322.77 266.31 321.7 265.84 320.72C265.4 319.83 264.87 318.89 264.84 317.87C264.83 317.72 264.86 317.59 264.89 317.47C264.76 317.06 264.63 316.66 264.52 316.25C264.26 315.18 265.8 314.74 266.16 315.77ZM199.52 333.36C198.94 333.67 198.35 333.9 197.76 334.08C196.11 334.76 194.46 335.48 192.76 335.94C190.95 336.43 190.26 333.85 191.96 333.18C194.07 332.35 196.23 331.46 198.41 330.84C199.9 330.42 200.95 332.62 199.52 333.36ZM156.15 271.86C155.93 271.5 155.73 271.13 155.54 270.76C154.72 269.46 153.69 268.31 152.89 266.99C152.52 266.38 152.69 265.75 153.09 265.33C153.06 265.27 153.04 265.22 153.01 265.16C152.52 264.19 153.83 263.39 154.45 264.29C154.67 264.59 154.87 264.92 155.06 265.25C155.06 265.25 155.07 265.25 155.07 265.26C156.49 266.63 157.74 268.61 158.56 270.4C159.3 272.01 157.13 273.44 156.15 271.86ZM154.17 232.13C153.34 232.32 152.5 232.44 151.64 232.31C151.51 232.29 151.4 232.25 151.29 232.2C151.01 232.19 150.74 232.17 150.47 232.14C149.75 232.07 149.16 230.96 150.02 230.58C150.28 230.46 150.54 230.36 150.81 230.27C150.97 229.95 151.24 229.69 151.6 229.58C153.44 229 155.59 228.39 157.53 228.31C159.32 228.23 159.51 230.7 157.98 231.28C156.81 231.72 155.49 232 154.17 232.13ZM285.42 180.03C285.3 180.05 285.18 180.06 285.06 180.08C285.06 180.08 285.06 180.08 285.06 180.08C285.05 180.08 285.04 180.08 285.03 180.08C281.44 180.6 277.85 180.86 274.24 181.16C273.16 181.25 273.2 179.66 274.21 179.51C274.43 179.48 274.65 179.44 274.87 179.41C274.82 178.85 275.07 178.27 275.71 178.17C278.79 177.69 281.9 177.25 285.02 177.39C286.45 177.46 287 179.79 285.42 180.03ZM229.77 166.24C229.76 166.2 229.75 166.15 229.74 166.11C229.56 165.4 230.58 165.11 230.82 165.79C230.89 165.99 230.95 166.19 231.01 166.39C231.1 166.45 231.19 166.53 231.26 166.62C231.88 167.4 232.19 168.49 232.59 169.4C233.05 170.48 233.48 171.56 233.86 172.67C233.86 172.67 233.85 172.67 233.84 172.67C233.87 172.77 233.9 172.88 233.91 172.99C234.12 174.47 231.99 174.53 231.51 173.35C231.02 172.15 230.51 170.95 230.02 169.74C229.68 168.91 229.28 168.11 229.23 167.21C229.2 166.71 229.44 166.39 229.77 166.24ZM302.73 212.63C302.93 212.43 303.2 212.29 303.56 212.26C305.61 212.07 307.68 211.85 309.75 211.79C311.36 211.75 311.3 214.03 309.79 214.23C309.17 214.31 308.55 214.37 307.93 214.41C306.49 214.58 305.04 214.8 303.59 214.8C303.21 214.8 302.91 214.66 302.71 214.46C301.81 214.23 301.81 212.88 302.73 212.63ZM322.69 251.72C323.65 253.64 324.72 255.73 325.17 257.84C325.51 259.43 323.42 259.98 322.8 258.54C322.46 257.74 322.16 256.93 321.87 256.11C321.34 255 320.76 253.91 320.42 252.72C320.36 252.5 320.37 252.3 320.41 252.11C320.4 252.08 320.39 252.05 320.38 252.02C319.99 251.07 321.47 250.38 322.03 251.15C322.29 251.22 322.53 251.4 322.69 251.72ZM312.69 283.38C312.74 284.33 312.8 285.27 312.93 286.21C312.92 286.21 312.91 286.21 312.89 286.21C312.8 287.66 310.61 288.24 310.24 286.62C309.77 284.55 309.46 282.18 309.66 280.06C309.71 279.5 310.11 279.05 310.59 278.83C310.6 278.71 310.61 278.6 310.62 278.48C310.74 277.21 312.44 277.18 312.6 278.45C312.81 280.09 312.68 281.74 312.69 283.38ZM239.06 327.11C238.86 328.74 238.42 330.49 238.5 332.13C238.58 333.91 235.61 333.5 236.15 331.85C236.27 331.48 236.37 331.1 236.45 330.71C236.5 329.32 236.64 327.91 237.06 326.59C237.48 325.29 239.22 325.81 239.06 327.11ZM215.61 342.48C216.1 344.26 216.43 346.23 216.66 348.07C216.85 349.52 214.81 349.54 214.33 348.42C213.51 346.5 213.16 344.49 212.61 342.49C212.38 341.67 213.53 341.03 214.02 341.63C214.65 341.5 215.4 341.75 215.61 342.48ZM192.25 303.78C191.54 303.79 191.07 303.43 190.66 302.9C190.04 302.11 190.31 300.87 190.99 300.19C191.43 299.76 192.06 299.57 192.66 299.72C193.18 299.86 193.72 300.3 193.86 300.84C194.19 301.48 194.22 302.25 193.8 302.86C193.43 303.4 192.93 303.77 192.25 303.78ZM163.19 282.67C163.28 282.9 163.31 283.15 163.29 283.39C163.24 284.06 163.09 284.62 162.61 285.12C162.31 285.42 161.96 285.64 161.55 285.76C161.31 285.81 161.07 285.86 160.83 285.87C159.73 285.89 158.71 285.13 158.4 284.07C158.15 283.22 158.38 282.28 159 281.64C159.62 281 160.56 280.74 161.42 280.96C161.84 281.07 162.22 281.28 162.53 281.58C162.85 281.89 163.06 282.25 163.19 282.67ZM191.6 243.52C191.58 242.2 192.66 241.08 193.98 241.06C195.56 241.04 196.76 242.56 196.36 244.09C196.16 244.9 195.51 245.59 194.69 245.81L194.63 245.83C194.4 245.89 194.17 245.9 193.95 245.89C193.93 245.89 193.91 245.89 193.89 245.89C193.82 245.89 193.76 245.88 193.69 245.87C193.63 245.86 193.56 245.86 193.49 245.84C193.47 245.84 193.44 245.83 193.42 245.83C192.37 245.61 191.61 244.56 191.6 243.52ZM172.39 250.54C172.44 250.62 172.48 250.7 172.53 250.77C173.46 252.41 172.36 254.53 170.43 254.56C169.55 254.58 168.71 254.11 168.26 253.36C167.77 252.56 167.82 251.66 168.22 250.84C168.26 250.76 168.29 250.68 168.33 250.6C169.11 249.01 171.55 249.06 172.39 250.54ZM154.11 218.66C153.75 218.16 153.78 217.59 153.85 217.02C153.95 216.24 154.84 215.68 155.56 215.67C155.72 215.67 155.86 215.69 155.99 215.72C156.4 215.67 156.83 215.73 157.23 215.96C157.87 216.32 158.27 217 158.28 217.72C158.3 218.64 157.68 219.48 156.8 219.74C156.22 219.91 155.69 219.8 155.21 219.53C154.77 219.34 154.42 219.08 154.11 218.66ZM184.31 211.74C186.47 211.67 186.51 215.02 184.36 215.09C182.2 215.16 182.15 211.81 184.31 211.74ZM237.64 189.29C237.63 189.29 237.63 189.3 237.62 189.3C237.62 189.3 237.62 189.3 237.62 189.3C237.6 189.31 237.58 189.33 237.56 189.33L237.57 189.33C237.37 189.45 237.17 189.54 236.97 189.6C236.32 189.79 235.61 189.7 235.02 189.37C234.45 189.05 234.02 188.51 233.84 187.88C233.84 187.88 233.84 187.88 233.84 187.88C233.83 187.86 233.83 187.85 233.83 187.83C233.83 187.83 233.83 187.82 233.83 187.82C233.76 187.58 233.75 187.36 233.75 187.13C233.74 186.7 233.82 186.27 234.05 185.85C234.28 185.46 234.58 185.15 234.96 184.92C234.97 184.91 234.97 184.91 234.98 184.9C235.74 184.42 236.77 184.42 237.55 184.86C237.94 185.08 238.25 185.38 238.48 185.76C238.72 186.16 238.84 186.58 238.85 187.04C238.85 187.05 238.85 187.06 238.85 187.07C238.97 187.91 238.34 188.88 237.64 189.29ZM208.82 232.45C205.26 232.57 205.18 227.04 208.74 226.93C212.3 226.81 212.38 232.34 208.82 232.45ZM265.48 215.91C267.24 215.85 267.27 218.56 265.53 218.62C263.77 218.68 263.74 215.96 265.48 215.91ZM292.37 182.87C294.05 182.81 295.47 184.24 295.5 185.9C295.53 187.6 294.14 188.97 292.47 189.03C290.79 189.08 289.37 187.65 289.34 186C289.32 184.3 290.7 182.92 292.37 182.87ZM188.69 183.15C189.2 183.64 189.5 184.32 189.51 185.04C189.51 185.52 189.4 185.98 189.16 186.4L189.14 186.45C188.77 187.28 187.7 187.85 186.82 187.83C186.01 187.81 185.42 187.58 184.8 187.06C184.29 186.63 184 185.84 184.01 185.19C184.02 185.22 184.02 185.26 184.03 185.29C183.99 184.81 184.05 184.35 184.16 183.86C184.23 183.57 184.34 183.29 184.41 183.01C184.66 182.1 185.47 181.44 186.42 181.43C187.38 181.41 188.19 182.05 188.48 182.94C188.48 182.95 188.49 182.96 188.49 182.97C188.56 183.03 188.63 183.08 188.69 183.15ZM307.74 232.95C307.55 232.83 307.36 232.71 307.2 232.55C306.07 231.44 306.54 229.45 308.08 229.01C308.09 229 308.11 229 308.13 228.99C308.09 229.01 308.06 229.02 308.02 229.04C308.63 228.82 309.28 228.81 309.88 229.15C310.55 229.53 310.98 230.25 310.99 231.02C311 231.79 310.6 232.52 309.94 232.92C309.31 233.3 308.37 233.38 307.74 232.95ZM295.49 276.07C295.77 276.33 295.99 276.66 296.09 277.06C296.15 277.29 296.19 277.53 296.19 277.78C296.24 279.03 295.17 280.09 293.93 280.11C292.65 280.13 291.63 279.1 291.59 277.85C291.59 277.76 291.6 277.68 291.6 277.6C291.61 277.45 291.63 277.31 291.66 277.17C291.66 277.15 291.67 277.14 291.67 277.13C291.75 276.66 292.05 276.24 292.43 275.94C292.44 275.93 292.45 275.92 292.46 275.91C292.47 275.9 292.49 275.89 292.5 275.88C292.57 275.83 292.63 275.78 292.7 275.74C292.71 275.74 292.72 275.74 292.72 275.73C292.89 275.63 293.07 275.55 293.24 275.5C293.89 275.31 294.59 275.43 295.14 275.79C295.17 275.81 295.19 275.82 295.21 275.83C295.31 275.9 295.4 275.98 295.48 276.06C295.49 276.06 295.49 276.06 295.49 276.07ZM309.08 306.22C306.64 306.3 306.58 302.52 309.02 302.44C311.46 302.36 311.51 306.14 309.08 306.22ZM254.6 311.13C252.94 311.18 252.9 308.62 254.56 308.56C256.22 308.51 256.25 311.08 254.6 311.13ZM258.18 326.93C258.48 327.43 258.51 327.95 258.41 328.52C258.41 328.55 258.4 328.58 258.39 328.62C258.23 329.5 257.31 330.13 256.45 330.14C255.57 330.16 254.69 329.55 254.47 328.68C254.46 328.64 254.45 328.61 254.44 328.58C254.12 327.28 255.01 325.96 256.39 325.94C257.11 325.93 257.8 326.31 258.18 326.93ZM224.29 331.73C224.29 331.75 224.29 331.78 224.29 331.8C224.31 331.95 224.31 332.09 224.29 332.23C224.29 332.23 224.29 332.24 224.29 332.25C224.27 332.39 224.24 332.53 224.2 332.67C224.19 332.7 224.19 332.72 224.18 332.74C224.17 332.78 224.15 332.82 224.13 332.85C224.09 332.97 224.04 333.09 223.98 333.2C223.8 333.52 223.54 333.79 223.24 334C223.19 334.04 223.14 334.08 223.09 334.12C222.8 334.34 222.42 334.44 222.04 334.47C221.59 334.53 221.14 334.46 220.73 334.26C220.7 334.24 220.66 334.23 220.63 334.21C220.6 334.19 220.56 334.18 220.53 334.16C220.48 334.14 220.45 334.1 220.41 334.08C220.08 333.87 219.8 333.6 219.6 333.27C219.58 333.23 219.57 333.19 219.55 333.15C219.5 333.07 219.47 332.99 219.43 332.91C219.41 332.86 219.39 332.8 219.37 332.75C219.33 332.62 219.3 332.49 219.27 332.35C219.27 332.33 219.27 332.31 219.26 332.29C219.24 332.15 219.24 332 219.24 331.86C219.24 331.84 219.24 331.82 219.24 331.8C219.24 331.79 219.24 331.78 219.24 331.77C219.3 331.08 219.45 330.49 219.95 329.98C220.42 329.5 221.06 329.22 221.73 329.21C222.39 329.2 223.04 329.46 223.52 329.92C223.84 330.23 224.06 330.6 224.19 331.02C224.22 331.25 224.25 331.47 224.29 331.69C224.29 331.7 224.29 331.71 224.29 331.73ZM170.96 323.39C171.57 323.88 171.77 324.87 171.58 325.59C171.57 325.61 171.57 325.62 171.56 325.64C171.3 326.61 170.42 327.31 169.41 327.33C168.38 327.34 167.54 326.66 167.22 325.7C167.21 325.69 167.2 325.67 167.2 325.66C166.96 324.94 167.18 323.96 167.75 323.44C167.76 323.44 167.77 323.43 167.77 323.42C168.22 323.01 168.72 322.75 169.34 322.74C169.98 322.73 170.45 322.99 170.93 323.37C170.94 323.38 170.95 323.39 170.96 323.39ZM216.11 295.22C216.15 295.3 216.2 295.38 216.24 295.46C217.05 296.87 216.1 298.71 214.43 298.73C213.67 298.74 212.95 298.34 212.55 297.69C212.13 297 212.17 296.22 212.52 295.51C212.56 295.43 212.6 295.35 212.63 295.28C213.3 293.92 215.39 293.96 216.11 295.22ZM280.64 232.5C283.58 232.4 283.65 236.96 280.71 237.05C277.77 237.15 277.71 232.59 280.64 232.5ZM307.23 184.69C307.28 184.52 307.55 184.54 307.55 184.73C307.48 190.02 309.19 193.66 313.39 196.9C316.76 199.49 320.5 201.52 323.34 204.75C324.03 205.55 322.87 206.74 322.19 205.93C316.68 199.38 304.35 195.31 307.23 184.69ZM328.08 270.83C330.97 268.38 334.82 267.23 338.09 265.41C339.83 264.44 342.03 263.32 343.09 261.55C344.49 259.21 342.52 257.34 340.93 255.71C340.65 255.42 341 254.94 341.36 255.14C345.61 257.5 346.13 261.39 342.35 264.46C338.42 267.64 333.04 268.65 329.24 271.95C328.46 272.63 327.29 271.5 328.08 270.83ZM285.36 331.59C283.27 335.51 280.09 338.94 275.65 340.04C271.38 341.1 266.58 341.24 262.22 340.83C262.02 340.82 261.95 340.53 262.16 340.46C265.98 339.25 270.06 339.68 273.94 338.83C278.72 337.78 281.51 334.91 284 330.83C284.52 329.97 285.83 330.7 285.36 331.59ZM288.96 325.93C288.33 327.17 287.38 328.18 286.83 329.49C286.65 329.94 286 329.62 286.08 329.19C286.35 327.84 286.65 326.22 287.47 325.08C288.1 324.2 289.48 324.92 288.96 325.93ZM292.15 321.87C292.3 322.38 291.92 322.81 291.43 322.85C291.21 322.87 290.93 323.07 290.89 323.28C290.79 323.73 290.03 323.78 289.95 323.29C289.8 322.43 290.4 321.92 291.02 321.43C291.42 321.13 292.02 321.44 292.15 321.87ZM304.34 362.17C286.13 374.21 263.32 377.47 241.92 378.09C241.54 378.1 241.43 377.48 241.81 377.42C263.2 374.15 284.82 373 303.44 360.68C304.38 360.05 305.28 361.55 304.34 362.17ZM137.18 340.42C135.94 333.79 134.68 326.83 135.89 320.11C135.94 319.87 136.3 319.93 136.31 320.16C136.51 328.06 137.55 335.62 139.06 343.37C140.44 350.4 141.79 357.52 141.32 364.72C141.26 365.54 139.99 365.58 140.02 364.74C140.3 356.46 138.7 348.52 137.18 340.42ZM150.02 409.21C141.71 410.65 140.24 400.76 139.41 394.78C139.35 394.34 140.07 394.24 140.17 394.66C141.36 399.95 142.84 408.03 149.75 407.38C150.79 407.28 151.06 409.03 150.02 409.21ZM209.22 392.04C205.4 396.42 204.22 402.92 199.36 406.45C194.81 409.75 189.65 407.23 186.88 402.84C186.78 402.68 186.98 402.45 187.14 402.57C189.39 404.21 192 406.96 195.06 406.66C197.35 406.43 199.17 404.96 200.59 403.24C203.6 399.59 206.11 395.55 208.36 391.41C208.73 390.73 209.75 391.44 209.22 392.04ZM206.62 401.81C203.33 408.86 195.23 416.15 188.86 407.98C188.68 407.74 189.05 407.48 189.26 407.66C195.81 413.45 202.26 407.25 205.49 401.17C205.88 400.43 206.96 401.06 206.62 401.81ZM230.3 378.54C230.02 378.62 229.72 378.5 229.57 378.26C229.36 377.92 229.34 377.54 229.25 377.16C229.18 376.84 229.11 376.52 229.04 376.2C228.94 375.76 229.56 375.44 229.79 375.87C229.96 376.2 230.14 376.52 230.31 376.85C230.47 377.15 230.68 377.4 230.73 377.75C230.78 378.09 230.66 378.44 230.3 378.54ZM230.91 380.31C231.94 383.94 232.2 387.78 232.26 391.54C232.28 392.65 230.58 392.67 230.53 391.56C230.34 387.85 230.28 384.11 230.3 380.4C230.3 380.05 230.81 379.96 230.91 380.31ZM148.45 256.02C149.36 260.75 148.19 265.16 146.03 269.38C145.74 269.97 144.89 269.47 145.16 268.89C147.01 264.78 148.43 260.1 147.08 255.6C145.79 251.3 142.91 248.2 140.07 244.84C139.92 244.66 140.12 244.31 140.35 244.47C144.08 247.2 147.55 251.37 148.45 256.02ZM144.96 271.32C144.83 271.67 144.69 272.02 144.6 272.38C144.51 272.73 144.52 273.13 144.39 273.46C144.19 273.98 143.3 273.99 143.34 273.34C143.36 272.9 143.57 272.45 143.74 272.04C143.91 271.65 144.11 271.31 144.38 271C144.6 270.75 145.09 271 144.96 271.32ZM215.83 257.72C215.78 258.19 215.04 258.23 215.07 257.73C215.43 250.89 217.36 244.36 222.04 239.19C226.64 234.11 232.68 230.97 239.22 229.15C240.62 228.77 241.25 230.96 239.85 231.3C227.1 234.46 217.19 244.36 215.83 257.72ZM243.63 229.95C245.15 229.48 247.68 230 248.89 231.02C249.59 231.62 248.86 232.67 248.06 232.49C247.17 232.3 246.34 231.77 245.46 231.49C244.81 231.28 244.17 231.07 243.53 230.81C243.13 230.65 243.28 230.06 243.63 229.95ZM250.82 232.06C251.8 231.64 253.09 231.78 254.04 232.26C255.05 232.77 254.17 234.35 253.17 233.79C252.47 233.4 251.79 232.96 250.95 232.94C250.41 232.94 250.37 232.25 250.82 232.06Z" />
	</g>
	<path id="sweetdomains.io " fill="#000000" d="M531.67 236.65C523.1 228.6 509.62 224.4 496.67 224.4C480.05 224.4 460.45 232.8 460.45 253.63C460.45 270.08 473.75 276.2 485.82 279C497.72 281.8 503.15 283.55 503.15 288.98C503.15 294.58 497.55 296.5 492.82 296.5C484.42 296.5 476.55 292.3 471.47 286.7L455.37 303.68C464.47 312.43 479.17 317.15 493.35 317.15C511.2 317.15 530.62 309.45 530.62 287.4C530.62 270.43 516.1 263.78 502.8 260.8C491.6 258.35 486.87 256.95 486.87 252.05C486.87 246.98 492.3 245.05 497.72 245.05C504.72 245.05 511.37 248.55 515.92 252.93ZM688.47 227.2L658.72 227.2L643.5 282.33L643.15 282.33L627.05 227.2L598.17 227.2L582.6 282.33L582.07 282.33L567.02 227.2L536.05 227.2L566.15 314.35L595.02 314.35L611.82 260.1L612.17 260.1L629.32 314.35L658.2 314.35ZM722.77 260.8C723.47 251.88 731.52 244.18 742.55 244.18C753.92 244.18 759.7 251.7 759.7 260.8ZM786.12 271.83C786.12 242.08 768.1 224.4 742.37 224.4C715.95 224.4 695.3 242.6 695.3 271.13C695.3 300.53 717 317.15 743.25 317.15C760.92 317.15 774.57 310.5 782.8 298.6L762.85 286C759 291.25 752.7 295.1 743.6 295.1C733.27 295.1 723.65 288.28 722.77 278.65L785.95 278.65C786.12 276.55 786.12 274.1 786.12 271.83ZM827.07 260.8C827.77 251.88 835.82 244.18 846.85 244.18C858.22 244.18 864 251.7 864 260.8ZM890.42 271.83C890.42 242.08 872.4 224.4 846.67 224.4C820.25 224.4 799.6 242.6 799.6 271.13C799.6 300.53 821.3 317.15 847.55 317.15C865.22 317.15 878.87 310.5 887.1 298.6L867.15 286C863.3 291.25 857 295.1 847.9 295.1C837.57 295.1 827.95 288.28 827.07 278.65L890.25 278.65C890.42 276.55 890.42 274.1 890.42 271.83ZM959.9 248.73L959.9 227.2L939.42 227.2L939.42 204.28L911.25 204.28L911.25 227.2L897.42 227.2L897.42 248.73L911.42 248.73L911.42 285.48C911.42 304.03 919.12 316.45 942.4 316.45C948.52 316.45 955.17 315.23 959.02 313.83L958.67 292.83C956.57 293.7 953.07 294.23 950.27 294.23C942.05 294.23 939.42 290.03 939.42 281.98L939.42 248.73ZM1045.3 300.53L1045.65 300.53L1045.65 314.35L1057.55 314.35L1057.55 182.05L1045.65 182.05L1045.65 246.63L1045.3 246.63C1038.3 235.95 1026.05 230.35 1014.32 230.35C988.77 230.35 971.97 249.25 971.97 273.4C971.97 297.55 988.77 316.45 1014.32 316.45C1026.05 316.45 1038.3 310.85 1045.3 300.53ZM984.57 273.4C984.57 255.2 995.77 240.33 1015.55 240.33C1033.92 240.33 1047.05 254.68 1047.05 273.4C1047.05 292.13 1033.92 306.3 1015.55 306.3C995.77 306.3 984.57 291.6 984.57 273.4ZM1170.77 273.4C1170.77 248.73 1152.57 230.35 1127.02 230.35C1101.65 230.35 1083.45 248.73 1083.45 273.4C1083.45 298.08 1101.65 316.45 1127.02 316.45C1152.57 316.45 1170.77 298.08 1170.77 273.4ZM1158.17 273.4C1158.17 291.78 1146.1 306.3 1127.02 306.3C1108.12 306.3 1096.05 291.78 1096.05 273.4C1096.05 255.03 1108.12 240.33 1127.02 240.33C1146.1 240.33 1158.17 255.03 1158.17 273.4ZM1208.05 246.45L1207.7 246.45C1207.7 242.95 1207.35 236.83 1207 232.45L1195.62 232.45C1196.15 238.05 1196.32 246.1 1196.32 250.48L1196.32 314.35L1208.22 314.35L1208.22 272.35C1208.22 250.48 1220.65 240.33 1232.02 240.33C1247.95 240.33 1251.8 250.65 1251.8 266.58L1251.8 314.35L1263.7 314.35L1263.7 270.78C1263.7 255.55 1269.82 240.33 1286.97 240.33C1302.37 240.33 1308.15 251.88 1308.15 269.03L1308.15 314.35L1320.05 314.35L1320.05 264.13C1320.05 243.83 1309.72 230.35 1288.9 230.35C1275.77 230.35 1265.8 236.48 1260.2 247.68C1254.77 233.68 1243.92 230.35 1235 230.35C1223.27 230.35 1212.77 237 1208.05 246.45ZM1402.47 264.13C1372.55 264.13 1344.72 266.4 1344.72 291.6C1344.72 309.8 1360.65 316.45 1373.07 316.45C1386.2 316.45 1395.3 311.9 1402.82 301.05L1403.17 301.05C1403.17 305.43 1403.7 310.33 1404.4 314.35L1415.07 314.35C1414.2 309.8 1413.67 302.28 1413.67 295.98L1413.67 260.1C1413.67 240.15 1399.5 230.35 1381.82 230.35C1367.82 230.35 1356.27 235.43 1349.62 242.08L1356.27 249.95C1362.05 244.18 1370.97 240.33 1380.6 240.33C1394.77 240.33 1402.47 247.33 1402.47 261.5ZM1402.47 273.4L1402.47 279.53C1402.47 294.05 1393.02 306.65 1376.22 306.65C1366.95 306.65 1356.97 302.8 1356.97 291.08C1356.97 275.5 1379.55 273.4 1398.97 273.4ZM1456.37 232.45L1444.47 232.45L1444.47 314.35L1456.37 314.35ZM1458.82 200.95C1458.82 196.05 1454.62 192.55 1450.42 192.55C1446.22 192.55 1442.02 196.05 1442.02 200.95C1442.02 205.85 1446.22 209.35 1450.42 209.35C1454.62 209.35 1458.82 205.85 1458.82 200.95ZM1487.35 232.45C1487.87 238.05 1488.05 246.1 1488.05 250.48L1488.05 314.35L1499.95 314.35L1499.95 272.35C1499.95 250.48 1512.2 240.33 1524.8 240.33C1541.95 240.33 1547.02 251.88 1547.02 269.03L1547.02 314.35L1558.92 314.35L1558.92 264.13C1558.92 243.83 1548.6 230.35 1527.77 230.35C1516.22 230.35 1504.32 237 1499.77 246.45L1499.42 246.45C1499.42 242.95 1499.07 236.83 1498.72 232.45ZM1642.4 245.05C1637.15 235.78 1625.07 230.35 1613.7 230.35C1598.82 230.35 1584.47 237.53 1584.47 254.15C1584.47 269.73 1598.3 273.93 1607.92 276.2C1623.5 279.88 1632.07 283.38 1632.07 291.95C1632.07 302.63 1622.97 306.3 1612.82 306.3C1603.2 306.3 1594.27 300.7 1590.07 293.53L1580.62 300.53C1588.15 311.55 1600.57 316.45 1613 316.45C1628.05 316.45 1643.8 309.8 1643.8 291.08C1643.8 278.3 1634.7 271.13 1615.45 267.1C1601.97 264.3 1595.85 260.8 1595.85 253.1C1595.85 244 1604.6 240.33 1613.17 240.33C1622.27 240.33 1629.8 245.05 1633.3 251.88ZM1683.87 305.95C1683.87 301.05 1680.02 296.5 1674.42 296.5C1668.82 296.5 1664.97 301.05 1664.97 305.95C1664.97 310.85 1668.82 315.4 1674.42 315.4C1680.02 315.4 1683.87 310.85 1683.87 305.95ZM1725 232.45L1713.1 232.45L1713.1 314.35L1725 314.35ZM1727.45 200.95C1727.45 196.05 1723.25 192.55 1719.05 192.55C1714.85 192.55 1710.65 196.05 1710.65 200.95C1710.65 205.85 1714.85 209.35 1719.05 209.35C1723.25 209.35 1727.45 205.85 1727.45 200.95ZM1838.05 273.4C1838.05 248.73 1819.85 230.35 1794.3 230.35C1768.92 230.35 1750.72 248.73 1750.72 273.4C1750.72 298.08 1768.92 316.45 1794.3 316.45C1819.85 316.45 1838.05 298.08 1838.05 273.4ZM1825.45 273.4C1825.45 291.78 1813.37 306.3 1794.3 306.3C1775.4 306.3 1763.32 291.78 1763.32 273.4C1763.32 255.03 1775.4 240.33 1794.3 240.33C1813.37 240.33 1825.45 255.03 1825.45 273.4Z" />
</svg>